<svg width="28" height="26" viewBox="0 0 28 26" fill="none" xmlns="http://www.w3.org/2000/svg">
<path d="M13.9883 0.235353C6.74316 0.232423 0.875 6.09767 0.875 13.3369C0.875 19.0616 4.5459 23.9278 9.6582 25.7149C10.3467 25.8878 10.2412 25.3985 10.2412 25.0645V22.794C6.26563 23.2598 6.10449 20.629 5.83789 20.1895C5.29883 19.2696 4.02441 19.0352 4.40527 18.5957C5.31055 18.1299 6.2334 18.7129 7.30273 20.292C8.07617 21.4376 9.58496 21.2442 10.3496 21.0538C10.5166 20.3653 10.874 19.75 11.3662 19.2725C7.24707 18.5342 5.53027 16.0205 5.53027 13.0323C5.53027 11.5821 6.00781 10.249 6.94531 9.17385C6.34766 7.40139 7.00098 5.8838 7.08887 5.65822C8.79102 5.50587 10.5605 6.87697 10.6982 6.98537C11.665 6.72463 12.7695 6.58693 14.0059 6.58693C15.248 6.58693 16.3555 6.73048 17.3311 6.99416C17.6621 6.7422 19.3027 5.56447 20.8848 5.70802C20.9697 5.93361 21.6084 7.41603 21.0459 9.16506C21.9951 10.2432 22.4785 11.5879 22.4785 13.041C22.4785 16.0352 20.75 18.5518 16.6191 19.2784C16.973 19.6263 17.2539 20.0413 17.4455 20.499C17.6372 20.9568 17.7357 21.4481 17.7353 21.9444V25.2403C17.7588 25.504 17.7353 25.7647 18.1748 25.7647C23.3633 24.0157 27.0986 19.1143 27.0986 13.3399C27.0986 6.09767 21.2275 0.235353 13.9883 0.235353V0.235353Z" fill="#0E0E0E"/>
</svg>
