<svg width="325" height="184" viewBox="0 0 325 184" fill="none" xmlns="http://www.w3.org/2000/svg">
<path d="M37.6 152.6V57.6L58.8 86.6L59.2 87.2L60 88.2L60.4 89L61.2 90L61.8 90.8L62.6 91.8L63 92.4L63.8 93.4L64.4 94.2L65 95.2L65.6 96L66.4 97L66.8 97.8H67L67.6 98.8L68.2 99.4L69 100.6L69.4 101.2L70.2 102.2L70.8 103L71.6 104H71.4L72 104.8L72.8 105.8L73.2 106.6H73.4L74 107.6L74.6 108.2L75.4 109.2V109.4L75.8 110L76.6 111L77.2 111.8L78 112.8H77.8L78.4 113.6L79.2 114.6L79.8 115.4L80.4 116.4L81 117L81.8 118L82.2 118.8H82.4L83 119.8L83.6 120.6L84.4 121.6L84.8 122.4L85.6 123.4L86.2 124L87 125L86.8 125.2L87.4 125.8L88.2 126.8L88.6 127.6H88.8L89.4 128.6L90 129.4L90.8 130.4L91.2 131.2L91.4 131L92 132.2L92.6 132.8L93.4 133.8L93.2 134L93.8 134.6L94.6 135.6L95 136.4H95.2L96 137.4H95.8L96.4 138.2L97.2 139.2L97.6 140L97.8 139.8L98.4 141L99 141.6L99.8 142.6L99.6 142.8L100.2 143.4L101 144.4L101.6 145.2L102.4 146.2H102.2L102.8 147L103.6 148L104 148.8L104.2 148.6L104.8 149.6V149.8L105.4 150.4L106.2 151.4H106L106.6 152.2H106.8L107 152.6H37.6ZM107.6 28.6V123L38.4 28.6H107.6ZM140.4 27.4H129.6V0.199988H128.4V27.4H108.4V0.199988H107.6V27.4H37.8L37.6 27.2V0.199988H36.4V25.8L19.4 2.4L18.6 2.99999L36.4 27.4H22.4H19.8H18H16.8L16.4 27.2V0.199988H15.6V25.8L10.4 18.8L9.6 19.4L15.6 27.4H0.2V28.6H15.6V152.6H2.4V153.4H15.6V183.2H16.4V153.4H36.4V183.2H37.6V153.4H107.6V183.2H108.4V154.6L124 175.8L124.8 175.2L109 153.4H128.4V183.2H129.6V154.8L137 165L138 164.6L129.8 153.4H140.8V152.6H129.6V28.6H140.4V27.4ZM128.2 151.2L127.4 150.2L128.4 149.6V151L128.2 151.2ZM126 152.6H123.4L126.6 150.6L127.4 151.8L126 152.6ZM126.8 149.4L126.2 148.4C127 148 127.6 147.4 128.4 147V148.6L126.8 149.4ZM121.6 152.6H119L125.2 149L126 150L121.6 152.6ZM125.6 147.6L124.8 146.6L128.4 144.6V146C127.4 146.6 126.6 147 125.6 147.6ZM117.2 152.6H114.8L124 147.2L124.8 148.2L117.2 152.6ZM124.4 146L123.6 145L128.4 142V143.6L124.4 146ZM113 152.6H110.4L122.8 145.4L123.4 146.4L113 152.6ZM123 144.2L122.2 143.2L128.4 139.6V141L123 144.2ZM108.6 152.6H108.4V151.2L121.4 143.6L122.2 144.6L108.6 152.6ZM121.8 142.4L121 141.4L128.4 137V138.6C126.2 140 124 141 121.8 142.4ZM120.8 143L108.4 150V148.6L120.2 141.8L120.8 143ZM107 151L106.4 150L107.6 149.2V150.6L107 151ZM120.4 140.6L119.8 139.6L128.4 134.6V136L120.4 140.6ZM119.6 141.2L108.4 147.6V146.2L118.8 140.2L119.6 141.2ZM105.8 149.2L105 148.2L107.6 146.8V148.2L105.8 149.2ZM119.2 139L118.4 137.8L128.4 132V133.6L119.2 139ZM118.4 139.4L108.4 145V143.6L117.6 138.4L118.4 139.4ZM104.4 147.4L103.8 146.4L107.6 144.2V145.6L104.4 147.4ZM118 137.2L117.2 136.2L128.4 129.6V131L118 137.2ZM117 137.6L108.4 142.6V141.2L116.2 136.6L117 137.6ZM103.2 145.6L102.4 144.6L107.6 141.8V143.2L103.2 145.6ZM116.6 135.4L115.8 134.4L128.4 127V128.6L116.6 135.4ZM115.8 135.8L108.4 140V138.6L115 134.8L115.8 135.8ZM102 144L101.2 142.8L107.6 139.2V140.6C105.8 141.6 103.8 143 102 144ZM115.4 133.6L114.6 132.6L128.4 124.6V126L115.4 133.6ZM114.4 134.2L108.4 137.6V136.2L113.8 133.2L114.4 134.2ZM100.6 142.2L99.8 141.2L107.6 136.8V138.2L100.6 142.2ZM114 131.8L113.4 130.8L128.4 122V123.6L114 131.8ZM113.2 132.4L108.4 135V133.6L112.4 131.4L113.2 132.4ZM99.4 140.4L98.6 139.4L107.6 134.2V135.6L99.4 140.4ZM112.8 130.2L112 129L128.4 119.6V121L112.8 130.2ZM112 130.6L108.4 132.6V131.2L111.2 129.6L112 130.6ZM98 138.6L97.4 137.6L107.6 131.8V133.2L98 138.6ZM111.4 128.4L110.8 127.4L128.4 117V118.6L111.4 128.4ZM110.6 128.8L108.4 130V128.6L109.8 127.8L110.6 128.8ZM96.8 136.8L96 135.8L107.6 129.2V130.6L96.8 136.8ZM110.2 126.6L109.4 125.6L128.4 114.6V116L110.2 126.6ZM109.4 127.2L108.4 127.6V126.2L108.6 126L109.4 127.2ZM95.4 135.2L94.8 134.2L107.6 126.8V128.2L95.4 135.2ZM109 124.8L108.4 124.2V123.6L128.4 112V113.6L109 124.8ZM94.2 133.4L93.4 132.4L107.2 124.4L107.6 124.6V125.6L94.2 133.4ZM108.4 122.6V121.2L128.4 109.6V111L108.4 122.6ZM93 131.6L92.2 130.6L106 122.6L106.8 123.6L93 131.6ZM91.6 129.8C91.4 129.4 91 129.2 90.8 128.8L104.8 120.8L105.4 121.8L91.6 129.8ZM108.4 120V118.6L128.4 107V108.6L108.4 120ZM90.4 128.2L89.6 127L103.4 119L104.2 120L90.4 128.2ZM108.4 117.6V116.2L128.4 104.6V106L108.4 117.6ZM89 126.4L88.4 125.4L102.2 117.4L103 118.4L89 126.4ZM108.4 115V113.6L128.4 102V103.6L108.4 115ZM87.8 124.6L87 123.6L100.8 115.6L101.6 116.6L87.8 124.6ZM108.4 112.6V111.2L128.4 99.6V101L108.4 112.6ZM86.6 122.8L85.8 121.8L99.6 113.8L100.4 114.8L86.6 122.8ZM108.4 110V108.6L128.4 97V98.6L108.4 110ZM35.2 152.6H32.8L36.4 150.4V151.8L35.2 152.6ZM85.2 121L84.4 120L98.4 112L99 113L85.2 121ZM108.4 107.6V106.2L128.4 94.6V96L108.4 107.6ZM31 152.6H28.4L36.4 147.8V149.2L31 152.6ZM84 119.4L83.2 118.2L97 110.2L97.8 111.4L84 119.4ZM108.4 105V103.6L128.4 92V93.6L108.4 105ZM26.6 152.6H24.2L36.4 145.4V146.8L26.6 152.6ZM82.6 117.6L82 116.6L95.8 108.6L96.4 109.6L82.6 117.6ZM108.4 102.6V101.2L128.4 89.6V91L108.4 102.6ZM22.4 152.6H19.8L36.4 142.8V144.2L22.4 152.6ZM81.4 115.8L80.6 114.8L94.4 106.8L95.2 107.8L81.4 115.8ZM108.4 100V98.6L128.4 87V88.6L108.4 100ZM18 152.6H16.4V152L36.4 140.4V141.8L18 152.6ZM80 114L79.4 113L93.2 105L94 106L80 114ZM108.4 97.6V96.2L128.4 84.6V86L108.4 97.6ZM36.4 139.2L16.4 150.8V149.4L36.4 137.8V139.2ZM78.8 112.2L78 111.2L91.8 103.2L92.6 104.2L78.8 112.2ZM108.4 95V93.6L128.4 82V83.6L108.4 95ZM36.4 136.8L16.4 148.4V147L36.4 135.4V136.8ZM77.6 110.6L76.8 109.6L90.6 101.4L91.4 102.6L77.6 110.6ZM108.4 92.6V91.2L128.4 79.6V81L108.4 92.6ZM36.4 134.2L16.4 145.8V144.4L36.4 132.8V134.2ZM76.2 108.8L75.4 107.8L89.4 99.8L90 100.8L76.2 108.8ZM108.4 90V88.6L128.4 77V78.6L108.4 90ZM36.4 131.8L16.4 143.4V142L36.4 130.4V131.8ZM75 107L74.2 106L88 98L88.8 99L75 107ZM108.4 87.6V86.2L128.4 74.6V76L108.4 87.6ZM36.4 129.2L16.4 140.8V139.4L36.4 127.8V129.2ZM73.6 105.2L73 104.2L86.8 96.2L87.6 97.2L73.6 105.2ZM108.4 85V83.6L128.4 72V73.6L108.4 85ZM36.4 126.8L16.4 138.4V137L36.4 125.4V126.8ZM72.4 103.6L71.6 102.4L85.4 94.4L86.2 95.4L72.4 103.6ZM108.4 82.6V81.2L128.4 69.6V71L108.4 82.6ZM36.4 124.2L16.4 135.8V134.4L36.4 122.8V124.2ZM71 101.8L70.4 100.8L84.2 92.8L85 93.8L71 101.8ZM108.4 80V78.6L128.4 67V68.6L108.4 80ZM36.4 121.8L16.4 133.4V132L36.4 120.4V121.8ZM69.8 100L69 99L83 91L83.6 92L69.8 100ZM108.4 77.6V76.2L128.4 64.6V66L108.4 77.6ZM36.4 119.2L16.4 130.8V129.4L36.4 117.8V119.2ZM68.6 98.2L67.8 97.2L81.6 89.2L82.4 90.2L68.6 98.2ZM108.4 75V73.6L128.4 62V63.6L108.4 75ZM36.4 116.8L16.4 128.4V127L36.4 115.4V116.8ZM67.2 96.4L66.4 95.4L80.4 87.4L81 88.4L67.2 96.4ZM108.4 72.6V71.2L128.4 59.6V61L108.4 72.6ZM36.4 114.2L16.4 125.8V124.4L36.4 112.8V114.2ZM66 94.8L65.2 93.8L79 85.6L79.8 86.8L66 94.8ZM108.4 70V68.6L128.4 57V58.6L108.4 70ZM36.4 111.8L16.4 123.4V122L36.4 110.4V111.8ZM64.6 93L64 92L77.8 84L78.6 85L64.6 93ZM108.4 67.6V66.2L128.4 54.6V56L108.4 67.6ZM36.4 109.2L16.4 120.8V119.4L36.4 107.8V109.2ZM63.4 91.2L62.6 90.2L76.4 82.2L77.2 83.2L63.4 91.2ZM108.4 65V63.6L128.4 52V53.6L108.4 65ZM36.4 106.8L16.4 118.4V117L36.4 105.4V106.8ZM62.2 89.4L61.4 88.4L75.2 80.4L76 81.4L62.2 89.4ZM108.4 62.6V61.2L128.4 49.6V51L108.4 62.6ZM36.4 104.2L16.4 115.8V114.4L36.4 102.8V104.2ZM60.8 87.8L60 86.6L74 78.6L74.6 79.6L60.8 87.8ZM108.4 60V58.6L128.4 47V48.6L108.4 60ZM36.4 101.8L16.4 113.4V112L36.4 100.4V101.8ZM59.6 86L58.8 85L72.6 77L73.4 78L59.6 86ZM108.4 57.6V56.2L128.4 44.6V46L108.4 57.6ZM36.4 99.2L16.4 110.8V109.4L36.4 97.8V99.2ZM58.2 84.2L57.6 83.2L71.4 75.2L72 76.2L58.2 84.2ZM108.4 55V53.6L128.4 42V43.6L108.4 55ZM36.4 96.8L16.4 108.4V107L36.4 95.4V96.8ZM57 82.4L56.2 81.4L70 73.4L70.8 74.4L57 82.4ZM108.4 52.6V51.2L128.4 39.6V41L108.4 52.6ZM36.4 94.2L16.4 105.8V104.4L36.4 92.8V94.2ZM55.6 80.6L55 79.6L68.8 71.6L69.6 72.6L55.6 80.6ZM108.4 50V48.6L128.4 37V38.6L108.4 50ZM36.4 91.8L16.4 103.4V102L36.4 90.4V91.8ZM54.4 79L53.6 78L67.4 69.8L68.2 71L54.4 79ZM108.4 47.6V46.2L128.4 34.6V36L108.4 47.6ZM36.4 89.2L16.4 100.8V99.4L36.4 87.8V89.2ZM53.2 77.2L52.4 76.2L66.2 68.2L67 69.2L53.2 77.2ZM108.4 45V43.6L128.4 32V33.6L108.4 45ZM36.4 86.8L16.4 98.4V97L36.4 85.4V86.8ZM51.8 75.4L51 74.4L65 66.4L65.6 67.4L51.8 75.4ZM108.4 42.6V41.2L128.4 29.6V31L108.4 42.6ZM36.4 84.2L16.4 95.8V94.4L36.4 82.8V84.2ZM50.6 73.6L49.8 72.6L63.6 64.6L64.4 65.6L50.6 73.6ZM108.4 40V38.6L126 28.6H128.4L108.4 40ZM36.4 81.8L16.4 93.4V92L36.4 80.4V81.8ZM49.2 72L48.6 70.8L62.4 62.8L63.2 63.8L49.2 72ZM124.2 28.6L108.4 37.6V36.2L121.6 28.6H124.2ZM36.4 79.2L16.4 90.8V89.4L36.4 77.8V79.2ZM48 70.2L47.2 69.2L61 61.2L61.8 62.2L48 70.2ZM119.8 28.6L108.4 35V33.6L117.4 28.6H119.8ZM36.4 76.8L16.4 88.4V87L36.4 75.4V76.8ZM46.6 68.4L46 67.4L59.8 59.4L60.6 60.4L46.6 68.4ZM115.6 28.6L108.4 32.6V31.2L113 28.6H115.6ZM36.4 74.2L16.4 85.8V84.4L36.4 72.8V74.2ZM45.4 66.6L44.6 65.6L58.6 57.6L59.2 58.6L45.4 66.6ZM111.2 28.6L108.4 30V28.6H108.8H111.2ZM36.4 71.8L16.4 83.4V82L36.4 70.4V71.8ZM44.2 64.8L43.4 63.8L57.2 55.8L58 56.8L44.2 64.8ZM36.4 69.2L16.4 80.8V79.4L36.4 67.8V69.2ZM42.8 63.2L42 62L56 54L56.6 55.2L42.8 63.2ZM36.4 66.8L16.4 78.4V77L36.4 65.4V66.8ZM41.6 61.4L40.8 60.4L54.6 52.4L55.4 53.4L41.6 61.4ZM36.4 64.2L16.4 75.8V74.4L36.4 62.8V64.2ZM40.2 59.6L39.6 58.6L53.4 50.6L54.2 51.6L40.2 59.6ZM36.4 61.8L16.4 73.4V72L36.4 60.4V61.8ZM39 57.8L38.2 56.8L52 48.8L52.8 49.8L39 57.8ZM36.4 59.2L16.4 70.8V69.4L36.4 57.8V59.2ZM36.4 56.8L16.4 68.4V67L36 55.6L36.4 56.2V56.8ZM37.8 56L37.6 55.8V54.8L50.8 47L51.6 48L37.8 56ZM35.6 54.8L16.4 65.8V64.4L34.8 53.8L35.6 54.8ZM36.4 54.4L35.6 53.4L36.4 52.8V54.2V54.4ZM50.2 46.4L37.6 53.8V52.2L49.6 45.2L50.2 46.4ZM34.2 53L16.4 63.4V62L33.6 52L34.2 53ZM35.2 52.6L34.4 51.6L36.4 50.4V51.8L35.2 52.6ZM49 44.6L37.6 51.2V49.8L48.2 43.6L49 44.6ZM33 51.4L16.4 60.8V59.4L32.2 50.4L33 51.4ZM33.8 50.8L33 49.8L36.4 47.8V49.2L33.8 50.8ZM47.8 42.8L37.6 48.8V47.2L47 41.8L47.8 42.8ZM31.6 49.6L16.4 58.4V57L31 48.6L31.6 49.6ZM32.6 49L31.8 48L36.4 45.4V46.8L32.6 49ZM46.4 41L37.6 46.2V44.8L45.6 40L46.4 41ZM30.4 47.8L16.4 55.8V54.4L29.6 46.8L30.4 47.8ZM31.2 47.4L30.6 46.2L36.4 42.8V44.2L31.2 47.4ZM45.2 39.2L37.6 43.8V42.2L44.4 38.2L45.2 39.2ZM29.2 46L16.4 53.4V52L28.4 45L29.2 46ZM30 45.6L29.2 44.6L36.4 40.4V41.8L30 45.6ZM43.8 37.6L37.6 41.2V39.8L43 36.6L43.8 37.6ZM27.8 44.4L16.4 50.8V49.4C20 47.4 23.4 45.2 27 43.2L27.8 44.4ZM28.8 43.8L28 42.8L36.4 37.8V39.2L28.8 43.8ZM42.6 35.8L37.6 38.8V37.2L41.8 34.8L42.6 35.8ZM26.6 42.6L16.4 48.4V47L25.8 41.6L26.6 42.6ZM27.4 42L26.6 41L36.4 35.4V36.8L27.4 42ZM41.2 34L37.6 36.2V34.8L40.6 33L41.2 34ZM25.2 40.8L16.4 45.8V44.4L24.6 39.8L25.2 40.8ZM26.2 40.2L25.4 39.2L36.4 32.8V34.2L26.2 40.2ZM40 32.2L37.6 33.8V32.2L39.2 31.2L40 32.2ZM24 39L16.4 43.4V42L23.2 38L24 39ZM24.8 38.6L24.2 37.6L36.4 30.4V31.8L24.8 38.6ZM38.8 30.6L37.6 31.2V29.8L38 29.4L38.8 30.6ZM22.8 37.2L16.4 40.8V39.4L22 36.2L22.8 37.2ZM23.6 36.8L22.8 35.8L35.4 28.6H36.4V29.2L23.6 36.8ZM21.4 35.6L16.4 38.4V37L20.6 34.6L21.4 35.6ZM33.6 28.6L22.2 35C22 34.6 21.8 34.4 21.6 34L31 28.6H33.6ZM20.2 33.8L16.4 35.8V34.4L19.4 32.8L20.2 33.8ZM29.2 28.6L21 33.2L20.2 32.2L26.8 28.6H29.2ZM18.8 32L16.4 33.4V32L18.2 31L18.8 32ZM25 28.6L19.8 31.6L19 30.4L22.4 28.6H25ZM17.6 30.2L16.4 30.8V29.4L16.8 29.2L17.6 30.2ZM20.6 28.6L18.4 29.8L17.6 28.8L18 28.6H20.6ZM230.369 153.2C234.169 152.8 237.569 151.8 240.969 150.4V152.6L230.369 153.2ZM220.569 101.6V101.4H220.969C220.769 101.4 220.769 101.4 220.569 101.6ZM201.369 49.4H210.569V58.8C208.969 54.6 205.569 51 201.369 49.4ZM193.769 49.4H197.169C204.569 50.2 210.569 56.8 210.569 64.4C210.569 72.6 203.569 79.4 195.369 79.4C187.169 79.4 180.569 72.6 180.569 64.4C180.569 56.8 186.369 50.2 193.769 49.4ZM221.569 131.4H218.969H218.769H216.369H214.569H211.969H211.369V122C213.169 126.6 216.969 130 221.569 131.4ZM226.169 101.6C233.769 101.6 240.169 107.2 240.969 114.6V118.2C240.169 125.6 233.769 131.2 226.169 131.2C217.969 131.2 211.369 124.6 211.369 116.4C211.369 108.2 217.969 101.6 226.169 101.6ZM195.369 101.4H195.569H210.169V101.6H210.569V116.4V131.4H210.169H207.769H205.969H203.369H201.569H198.969H197.169H194.769H193.369C191.369 126.8 190.169 122 190.169 116.6C190.169 111.2 191.369 106 193.369 101.4H195.369ZM228.169 49.4C230.169 54 231.369 59.2 231.369 64.6C231.369 70 230.169 74.8 228.169 79.4H226.169H213.569H211.369V64.4V49.4H228.169ZM240.969 80.6V82.6C238.969 81.8 236.769 81.2 234.569 80.6H240.969ZM240.969 49.4V79.4H229.369C231.369 74.8 232.569 70 232.569 64.6C232.569 59.2 231.369 54 229.369 49.4H240.969ZM261.969 101.4V107.6C261.369 105.6 260.769 103.4 259.969 101.4H261.969ZM261.969 131.4H259.969C260.769 129.4 261.369 127.4 261.969 125.4V131.4ZM261.969 132.6V152.6H241.969V150C249.569 146.4 255.769 140.2 259.369 132.6H261.969ZM179.369 101.4V131.4H159.369V101.4H179.369ZM180.569 101.4H192.169C190.169 106 188.969 111.2 188.969 116.6C188.969 122 190.169 126.8 192.169 131.4H180.569V101.4ZM180.569 100.6V98.4C182.569 99.4 184.769 100 186.969 100.6H180.569ZM180.569 28.6H186.969C184.769 29.2 182.569 29.6 180.569 30.6V28.6ZM159.369 79.4V73C159.969 75.2 160.569 77.4 161.569 79.4H159.369ZM159.369 80.6H162.169C165.769 88.2 171.769 94.2 179.369 97.8V100.6H159.369V80.6ZM159.369 48.6V28.6H179.369V31.2C171.769 34.8 165.769 41 162.169 48.6H159.369ZM159.369 49.4H161.569C160.569 51.4 159.969 53.8 159.369 56V49.4ZM254.969 80.6V79.4H241.969V49.4H261.969V100.6H259.369C255.769 93 249.569 86.6 241.969 83V80.6H254.969ZM143.169 79.4V80.6H158.569V100.6H145.369V101.4H158.569V131.4H143.369V132.6H158.569V152.6H143.369V153.4H158.569V183.2H159.369V153.4H179.369V183.2H180.569V153.4H210.569V183.2H211.369V153.4H226.169H240.969V183.2H241.969V153.4H261.969V183.2H262.969V153.4H275.769V152.6H262.969V132.6H275.769V131.4H262.969V119.2V116.6V113.8V49.4H274.369V48.6H262.969V28.6H274.369V27.4H262.969V0.199988H261.969V27.4H241.969V0.199988H240.969V27.4H211.369V0.199988H210.569V27.4H195.369H180.569V0.199988H179.369V27.4H159.369V0.199988H158.569V27.4H143.169V28.6H158.569V48.6H143.169V49.4H158.569V64.6V79.4H143.169ZM237.769 150.6C236.169 151.2 234.569 151.4 232.969 151.8L240.969 147.2V148.6L237.769 150.6ZM241.969 148V146.6L253.169 140.2C252.169 141.4 250.969 142.6 249.769 143.6L241.969 148ZM230.569 152.2C229.569 152.4 228.569 152.4 227.569 152.4L240.969 144.8V146.2L230.569 152.2ZM241.969 145.6V144.2L256.569 135.8L254.769 138.2L241.969 145.6ZM225.769 152.4H223.369L240.969 142.2V143.6L225.769 152.4ZM241.969 143V141.6L257.769 132.6H258.369C258.169 133.2 257.769 133.6 257.369 134.2L241.969 143ZM221.769 152.2C221.169 152.2 220.369 152.2 219.769 152L240.969 139.8V141.2L221.769 152.2ZM241.969 140.6V139.2L253.369 132.6H255.969L241.969 140.6ZM257.769 131.4H255.169L259.969 128.8C259.769 129.4 259.369 130 259.169 130.6L257.769 131.4ZM218.569 151.6C217.969 151.4 217.369 151.4 216.769 151.2L240.969 137.2V138.6L218.569 151.6ZM241.969 138V136.6L249.169 132.6H251.569L241.969 138ZM253.369 131.4H250.769L260.969 125.6L260.369 127.4L253.369 131.4ZM217.169 152.4V152.6H214.569L215.569 152C216.169 152.2 216.569 152.2 217.169 152.4ZM215.569 151C214.969 150.8 214.569 150.6 213.969 150.4L240.969 134.8V136.2L215.569 151ZM241.969 135.6V134.2L244.769 132.6H247.369L241.969 135.6ZM248.969 131.4H246.569L261.569 122.8C261.569 123.4 261.369 123.8 261.169 124.4L248.969 131.4ZM214.369 151.6L212.769 152.6H211.369V151.8L212.769 151C213.369 151.2 213.769 151.4 214.369 151.6ZM210.169 152.6L210.569 152.4V152.6H210.169ZM208.369 152.6H205.969L210.369 150H210.569V151.4L208.369 152.6ZM212.769 150C212.369 149.8 211.769 149.6 211.369 149.4L240.569 132.6H240.969V133.6L212.769 150ZM241.969 133V132.6H242.969L241.969 133ZM244.769 131.4H242.169L261.969 120.2C261.969 120.8 261.769 121 261.769 121.6L244.769 131.4ZM211.769 150.6L211.369 150.8V150.6H211.769ZM204.169 152.6H201.569L207.969 148.8C208.369 149 208.969 149.4 209.369 149.6L204.169 152.6ZM238.769 132.6L211.369 148.2V146.8L236.169 132.6H238.769ZM240.969 131.2L240.369 131.4H237.969L240.969 129.8V131.2ZM261.969 119L241.969 130.6V129.2L261.969 117.6V119ZM210.369 149C209.969 148.8 209.369 148.4 208.969 148.2L210.569 147.4V148.8L210.369 149ZM199.769 152.6H197.369L205.969 147.6L207.169 148.2L199.769 152.6ZM234.369 132.6L211.369 145.8V144.4L231.769 132.6H234.369ZM240.969 128.6L236.169 131.4H233.569L240.969 127.2V128.6ZM261.969 116.6L241.969 128V126.6L261.969 115V116.6ZM208.169 147.8C207.769 147.6 207.369 147.2 206.969 147L210.569 144.8V146.4L208.169 147.8ZM195.569 152.6H192.969L203.969 146.2C204.369 146.4 204.769 146.8 205.169 147L195.569 152.6ZM229.969 132.6L211.369 143.2V141.8L227.569 132.6H229.969ZM240.969 126.2L231.769 131.4H230.969C234.169 130.4 236.769 128.6 238.769 126L240.969 124.8V126.2ZM261.969 114L241.969 125.6V124.2L261.769 112.6C261.769 113 261.969 113.4 261.969 113.8V114ZM205.969 146.4C205.569 146.2 205.369 145.8 204.969 145.6L210.569 142.4V143.8L205.969 146.4ZM240.969 123.6L239.969 124.2C240.369 123.6 240.769 123 240.969 122.2V123.6ZM261.769 111.6L241.969 123V121.6L261.569 110.4C261.569 110.8 261.769 111.2 261.769 111.6ZM191.169 152.6H188.769L202.169 144.8C202.569 145 202.769 145.4 203.169 145.6L191.169 152.6ZM225.769 132.6L211.369 140.8V139.4L223.169 132.6H225.769ZM204.169 145C203.769 144.8 203.369 144.4 202.969 144.2L210.569 139.8V141.4L204.169 145ZM261.369 109.4L241.969 120.6V119.2L261.169 108C261.369 108.4 261.369 109 261.369 109.4ZM186.969 152.6H184.369L200.369 143.2C200.769 143.6 200.969 143.8 201.369 144L186.969 152.6ZM221.369 132.6L211.369 138.2V136.8L218.969 132.6H221.369ZM202.369 143.6C201.969 143.4 201.769 143 201.369 142.6L210.569 137.4V138.8L202.369 143.6ZM260.769 107.2L241.969 118V116.6L260.569 106C260.769 106.4 260.569 106.8 260.769 107.2ZM182.569 152.6H180.569V152.2L198.969 141.6C199.169 142 199.369 142.2 199.769 142.6L182.569 152.6ZM217.169 132.6L211.369 135.8V134.4L214.569 132.6H217.169ZM200.769 142C200.369 141.6 199.969 141.4 199.769 141L210.569 134.8V136.4L200.769 142ZM260.169 105L241.969 115.6V114.6V114.2L259.769 103.8C259.969 104.2 259.969 104.6 260.169 105ZM198.169 141L180.569 151.2V149.8L197.369 140C197.569 140.4 197.969 140.6 198.169 141ZM179.369 151.8L178.169 152.6H175.769L179.369 150.4V151.8ZM212.769 132.6L211.369 133.2V132.6H212.769ZM199.169 140.4C198.969 140 198.569 139.8 198.369 139.4L210.369 132.6H210.569V133.8L199.169 140.4ZM259.369 103L241.969 113V111.6L258.969 101.8C259.169 102.2 259.169 102.6 259.369 103ZM196.969 139.2L180.569 148.8V147.2L196.169 138.2C196.369 138.6 196.769 138.8 196.969 139.2ZM179.369 149.2L173.969 152.6H171.369L179.369 147.8V149.2ZM197.769 138.8C197.569 138.4 197.169 138 196.969 137.6L205.969 132.6H208.569L197.769 138.8ZM257.769 101.4L241.969 110.6V109.2L255.169 101.4H257.769ZM195.569 137.4L180.569 146.2V144.8L194.969 136.4C195.169 136.8 195.369 137 195.569 137.4ZM179.369 146.8L169.569 152.6H167.169L179.369 145.4V146.8ZM196.369 137C196.169 136.6 195.969 136.4 195.769 136L201.569 132.6H204.169L196.369 137ZM240.369 109C240.169 108.6 239.769 108.4 239.569 108L240.969 107.2V108.6L240.369 109ZM253.369 101.4L241.969 108V106.6L250.769 101.4H253.369ZM255.169 100.6H252.569L256.969 98C257.169 98.4 257.369 98.6 257.569 99L255.169 100.6ZM240.569 109.8H240.969V110.6C240.969 110.4 240.769 110 240.569 109.8ZM256.969 100.6L257.969 99.8C258.169 100 258.169 100.4 258.369 100.6H256.969ZM194.369 135.6L180.569 143.8V142.2L193.769 134.6C193.969 135 194.169 135.2 194.369 135.6ZM179.369 144.2L165.369 152.6H162.769L179.369 142.8V144.2ZM195.369 135.2C195.169 134.8 194.769 134.4 194.569 134L197.369 132.6H199.769L195.369 135.2ZM239.169 107.2C238.969 106.8 238.569 106.6 238.369 106.2L240.969 104.8V106.2L239.169 107.2ZM248.969 101.4L241.969 105.6V104.2L246.569 101.4H248.969ZM250.769 100.6H248.169L255.769 96.2C255.969 96.6 256.169 96.8 256.369 97.2L250.769 100.6ZM193.369 133.8L180.569 141.2V139.8L192.769 132.6L193.369 133.8ZM179.369 141.8L160.969 152.6H159.369V152L179.369 140.4V141.8ZM194.169 133.2C193.969 133 193.969 132.8 193.769 132.6H195.569L194.169 133.2ZM237.769 105.6C237.369 105.2 237.169 104.8 236.769 104.6L240.969 102.2V103.6L237.769 105.6ZM244.769 101.4L241.969 103V101.6L242.169 101.4H244.769ZM246.369 100.6H243.969L254.569 94.4C254.769 94.8 254.969 95 255.169 95.4L246.369 100.6ZM191.169 132.6L180.569 138.8V137.2L188.769 132.6H191.169ZM179.369 139.2L159.369 150.8V149.4L179.369 137.8V139.2ZM240.369 101.4L236.169 104C235.769 103.8 235.369 103.4 234.969 103.2L237.969 101.4H240.369ZM242.169 100.6H241.969V99.2L253.169 92.8C253.369 93.2 253.769 93.2 253.969 93.6L242.169 100.6ZM186.969 132.6L180.569 136.2V134.8L184.369 132.6H186.969ZM179.369 136.8L159.369 148.4V147L179.369 135.4V136.8ZM236.169 101.4L234.169 102.6C233.769 102.4 233.169 102.2 232.769 102L233.569 101.4H236.169ZM240.969 98.6L237.769 100.6H235.369L240.969 97.2V98.6ZM252.369 92L241.969 98.2V96.6L251.569 91C251.969 91.4 252.169 91.6 252.369 92ZM240.969 99.8V100.6H239.569L240.969 99.8ZM182.569 132.6L180.569 133.8V132.6H182.569ZM179.369 134.2L159.369 145.8V144.4L179.369 132.8V134.2ZM231.769 101.4V101.6L231.569 101.4H231.769ZM240.969 96.2L233.569 100.6H230.969L240.969 94.8V96.2ZM250.969 90.4L241.969 95.6V94.2L249.969 89.6C250.369 89.8 250.569 90 250.969 90.4ZM178.169 132.6L159.369 143.4V142L175.769 132.6H178.169ZM240.969 93.6L229.169 100.6H226.769L240.969 92.2V93.6ZM249.169 89L241.969 93V91.6L248.169 88C248.569 88.2 248.769 88.8 249.169 89ZM173.969 132.6L159.369 140.8V139.4L171.369 132.6H173.969ZM240.969 91.2L224.969 100.6H222.369L240.969 89.8V91.2ZM247.369 87.4L241.969 90.6V89.2L246.169 86.6C246.569 86.8 246.969 87.2 247.369 87.4ZM169.569 132.6L159.369 138.4V137L167.169 132.6H169.569ZM240.969 88.6L220.569 100.6H217.969L240.969 87.2V88.6ZM245.369 86.2L241.969 88V86.6L244.169 85.4C244.569 85.6 244.969 86 245.369 86.2ZM218.769 101.4V101.6H220.369C216.369 103.2 212.969 106.6 211.369 110.8V101.6H211.969V101.4H214.569V101.6H216.369V101.4H218.769ZM165.369 132.6L159.369 135.8V134.4L162.769 132.6H165.369ZM240.969 86.2L216.169 100.6H213.769L240.969 84.8V86.2ZM243.169 84.8L241.969 85.6V84.2L243.169 84.8ZM160.969 132.6L159.369 133.4V132.6H160.969ZM240.969 83.8L211.969 100.6H211.369V99.4L239.569 83C239.969 83.2 240.569 83.6 240.969 83.8ZM238.369 82.6L211.369 98.2V97.8C214.969 96.2 218.169 93.8 220.969 91.2L236.769 82.2C237.369 82.4 237.769 82.4 238.369 82.6ZM207.569 100.6H205.169L205.969 100C207.569 99.6 209.169 99 210.569 98.4V98.8L207.569 100.6ZM209.369 100.6L210.569 99.8V100.6H209.369ZM235.569 81.8L223.169 89C223.969 88.2 224.769 87.2 225.369 86.2L233.769 81.4C234.369 81.6 234.969 81.6 235.569 81.8ZM205.969 99C204.569 99.4 203.169 99.8 201.769 100L210.569 94.8V96.4L205.969 99ZM211.369 95.8V94.4L223.169 87.6C222.169 88.8 220.969 89.8 219.969 90.8L211.369 95.8ZM212.169 96.4L214.769 95C213.969 95.6 212.969 96 212.169 96.4ZM232.569 81L226.569 84.6C226.969 83.8 227.569 83 227.969 82.2L230.569 80.8C231.169 80.8 231.969 80.8 232.569 81ZM199.369 100.2C198.369 100.4 197.569 100.4 196.569 100.4L210.569 92.4V93.8L199.369 100.2ZM211.369 93.2V91.8L226.169 83.2C225.569 84 225.169 84.8 224.569 85.6L211.369 93.2ZM228.969 80.6L228.769 80.8V80.6H228.969ZM210.569 91.4L194.769 100.4H193.769C193.969 100 194.369 99.6 194.569 99.2L210.569 89.8V91.4ZM211.369 90.8V89.4L226.569 80.6H227.769L227.169 81.8L211.369 90.8ZM190.769 100.2C190.169 100.2 189.369 100 188.769 99.8L195.169 96.2C194.769 97 194.169 97.8 193.769 98.6L190.769 100.2ZM210.569 88.8L195.569 97.6C196.169 96.8 196.569 96 197.169 95.2L210.569 87.4V88.8ZM224.769 80.6L211.369 88.2V86.8L221.969 80.8C222.969 80.6 223.769 80.6 224.769 80.6ZM192.369 100.4L192.969 100C192.969 100.2 192.769 100.2 192.769 100.4H192.369ZM187.569 99.6C186.969 99.4 186.369 99.4 185.769 99.2L198.569 91.8C197.769 92.6 197.169 93.6 196.369 94.6L187.569 99.6ZM210.569 86.4L198.569 93.2C199.569 92 200.569 90.8 201.769 89.8L210.569 84.8V86.4ZM219.569 81L211.369 85.8V84.4L215.169 82.2C216.569 81.8 217.969 81.2 219.569 81ZM184.569 98.8C183.969 98.6 183.569 98.4 182.969 98.2L210.569 82.4V83C206.969 84.6 203.769 86.8 200.969 89.4L184.569 98.8ZM216.169 80.6L215.169 81.2C213.969 81.6 212.569 81.8 211.369 82.4V81.8L213.769 80.6H216.169ZM181.969 97.8C181.569 97.6 180.969 97.4 180.569 97.2L209.369 80.6H210.569V81.4L181.969 97.8ZM211.969 80.6L211.369 80.8V80.6H211.969ZM210.569 79.4H209.369H206.769H204.969H202.569H200.769C205.169 77.8 208.969 74.4 210.569 70V79.4ZM180.569 96.2V94.8L205.169 80.6H207.569L180.569 96.2ZM261.969 47.6V48.6H260.369L261.969 47.6ZM261.969 46.6L258.569 48.6H255.969L261.969 45V46.6ZM177.369 95.6C176.969 95.4 176.369 95 175.969 94.8L179.369 92.8V94.2L177.369 95.6ZM180.569 93.8V92.2L200.769 80.6H203.369L180.569 93.8ZM178.169 96L179.369 95.4V96.8C178.969 96.6 178.569 96.2 178.169 96ZM261.969 44L254.169 48.6H251.769L261.969 42.6V44ZM175.169 94.2C174.769 94 174.569 93.6 174.169 93.4L179.369 90.4V91.8L175.169 94.2ZM180.569 91.2V89.8L196.369 80.6H198.969L180.569 91.2ZM261.969 41.6L249.969 48.6H247.369L261.969 40V41.6ZM173.369 92.8C172.969 92.6 172.569 92.2 172.169 92L179.369 87.8V89.2L173.369 92.8ZM180.569 88.8V87.2L192.169 80.6H194.569L180.569 88.8ZM261.969 39L245.569 48.6H243.169L261.969 37.6V39ZM171.569 91.4C171.169 91.2 170.969 90.8 170.569 90.4L179.369 85.4V86.8L171.569 91.4ZM180.569 86.2V84.8L187.769 80.6H190.369L180.569 86.2ZM261.969 36.6L241.969 48V46.6L261.969 35V36.6ZM169.969 89.8C169.569 89.4 169.169 89.2 168.969 88.8L179.369 82.8V84.2L169.969 89.8ZM180.569 83.8V82.2L183.569 80.6H185.969L180.569 83.8ZM187.769 79.4H185.169L187.369 78.2C187.769 78.4 188.369 78.8 188.769 79L187.769 79.4ZM240.969 47.2V48.6H238.769L240.969 47.2ZM261.969 34L241.969 45.6V44.2L261.969 32.6V34ZM240.969 46.2L236.969 48.6H234.369L240.969 44.8V46.2ZM168.369 88.2C168.169 87.8 167.769 87.6 167.569 87.2L179.169 80.6H179.369V81.8L168.369 88.2ZM180.569 81.2V80.6H181.769L180.569 81.2ZM183.369 79.4H180.969L185.369 76.8C185.769 77 186.169 77.4 186.569 77.6L183.369 79.4ZM261.969 31.6L241.969 43V41.6L261.969 30V31.6ZM240.969 43.6L232.569 48.6H230.169L240.969 42.2V43.6ZM179.169 79.4H176.569L179.369 77.8V79.2L179.169 79.4ZM177.369 80.6L166.969 86.6C166.769 86.2 166.369 86 166.169 85.6L174.769 80.6H177.369ZM184.769 76.2L180.569 78.8V77.2L183.769 75.4C183.969 75.8 184.369 76 184.769 76.2ZM261.969 29L241.969 40.6V39.2L260.369 28.6H261.969V29ZM240.969 41.2L228.769 48.2C228.569 47.8 228.369 47.6 228.169 47.2L240.969 39.8V41.2ZM174.769 79.4H172.369L179.369 75.4V76.8L174.769 79.4ZM173.169 80.6L165.769 84.8C165.569 84.4 165.169 84.2 164.969 83.8L170.569 80.6H173.169ZM183.169 74.6L180.569 76.2V74.8L182.369 73.6C182.569 74 182.969 74.2 183.169 74.6ZM227.369 47.6C227.569 47.8 227.569 48.4 227.769 48.6H225.769L227.369 47.6ZM258.569 28.6L241.969 38V36.6L255.969 28.6H258.569ZM240.969 38.6L227.769 46.4L227.169 45.2L240.969 37.2V38.6ZM226.769 46.8L223.969 48.6H221.569L226.169 45.8C226.369 46.2 226.569 46.4 226.769 46.8ZM170.569 79.4H167.969L179.369 72.8V74.2L170.569 79.4ZM168.769 80.6L164.569 83L163.969 81.8L166.169 80.6H168.769ZM181.969 72.8L180.569 73.8V72.2L181.369 71.8C181.569 72.2 181.769 72.4 181.969 72.8ZM254.169 28.6L241.969 35.6V34.2L251.769 28.6H254.169ZM240.969 36.2L226.569 44.6L225.969 43.4L240.969 34.8V36.2ZM225.769 45L219.769 48.6H217.169L224.969 44C225.169 44.4 225.569 44.6 225.769 45ZM166.169 79.4H163.569L179.369 70.4V71.8L166.169 79.4ZM164.369 80.6L163.569 81C163.569 80.8 163.169 80.8 163.169 80.6H164.369ZM180.969 71L180.569 71.2V70C180.769 70.4 180.769 70.6 180.969 71ZM249.969 28.6L241.969 33V31.6L247.369 28.6H249.969ZM240.969 33.6L225.369 42.8C225.169 42.4 224.769 42 224.569 41.6L240.969 32.2V33.6ZM224.569 43.2L215.369 48.6H212.769L223.769 42.2C223.969 42.6 224.369 42.8 224.569 43.2ZM162.569 79C162.369 78.6 162.169 78.4 161.969 78L179.369 67.8V69.2L162.569 79ZM245.569 28.6L241.969 30.6V29.2L243.169 28.6H245.569ZM240.969 31.2L223.969 41C223.769 40.6 223.369 40.4 223.169 40L240.969 29.8V31.2ZM223.169 41.4L211.369 48.2V46.8L222.369 40.6C222.569 41 222.969 41 223.169 41.4ZM161.769 77C161.569 76.6 161.569 76.2 161.369 75.8L179.369 65.4V66.8L161.769 77ZM208.569 48.6L210.569 47.4V48.6H208.569ZM206.769 48.6H204.169L210.569 44.8V46.4L206.769 48.6ZM240.969 28.6L222.569 39.4C222.369 39 222.169 38.8 221.769 38.4L238.769 28.6H240.969ZM221.769 39.8L211.369 45.8V44.4L220.769 39C221.169 39.4 221.569 39.4 221.769 39.8ZM160.969 75C160.769 74.6 160.769 74.2 160.569 73.8L179.369 62.8V64.2L160.969 75ZM202.369 48.6H199.969L210.569 42.4V43.8L202.369 48.6ZM236.969 28.6L220.969 37.8C220.569 37.4 220.369 37 219.969 36.8L234.369 28.6H236.969ZM220.169 38.2L211.369 43.2V41.8L219.169 37.4C219.569 37.6 219.769 37.8 220.169 38.2ZM160.369 72.8C160.169 72.4 160.169 72 160.169 71.6L179.369 60.4V61.8L160.369 72.8ZM198.169 48.6H197.169C196.769 48.6 196.369 48.4 195.769 48.4L210.569 39.8V41.4L198.169 48.6ZM232.569 28.6L219.369 36.2C218.969 36 218.569 35.6 218.169 35.4L230.169 28.6H232.569ZM218.369 36.8L211.369 40.8V39.4L217.369 36C217.769 36.2 217.969 36.6 218.369 36.8ZM159.969 70.6C159.969 70.2 159.769 69.6 159.769 69.2L179.369 57.8V59.2L159.969 70.6ZM180.569 57.2L181.369 56.6C180.969 57.2 180.569 57.2 180.569 57.2ZM193.769 48.4V48.6H191.369L210.569 37.4V38.8L193.769 48.4ZM228.369 28.6L217.569 34.8C217.169 34.6 216.769 34.2 216.369 34L225.769 28.6H228.369ZM216.569 35.4L211.369 38.2V36.8L215.369 34.6C215.769 34.8 216.169 35.2 216.569 35.4ZM159.569 68.2V66.8L179.369 55.4V56.8L159.569 68.2ZM180.569 56.2V54.8L185.769 51.8C184.569 52.8 183.569 53.8 182.569 55L180.569 56.2ZM159.569 65.8C159.569 65.4 159.369 65 159.369 64.6L159.569 64.4L179.369 52.8V54.2L159.569 65.8ZM180.569 53.8V52.2L185.169 49.4H187.769L180.569 53.8ZM189.569 48.6H186.969L210.569 34.8V36.4L189.569 48.6ZM223.969 28.6L215.569 33.4C215.169 33.2 214.769 32.8 214.369 32.6L221.569 28.6H223.969ZM214.569 34L211.369 35.8V34.4L213.369 33.2C213.769 33.4 214.169 33.8 214.569 34ZM159.569 63.4V61.8L179.369 50.4V51.8L159.569 63.4ZM180.569 51.2V49.8L180.969 49.4H183.369L180.569 51.2ZM185.169 48.6H182.569L210.569 32.4V33.8L185.169 48.6ZM219.769 28.6C217.769 29.8 215.369 31 213.369 32.2C212.969 32 212.569 31.6 212.169 31.4L217.169 28.6H219.769ZM212.369 32.8L211.369 33.2V32.2C211.769 32.4 211.969 32.6 212.369 32.8ZM179.169 49.4L159.569 60.8C159.569 60.2 159.769 59.8 159.769 59.2L176.569 49.4H179.169ZM180.769 48.6H180.569V47.2L208.569 31C208.969 31.2 209.569 31.4 209.969 31.6L180.769 48.6ZM215.369 28.6L211.369 30.8V29.4L212.769 28.6H215.369ZM174.769 49.4L159.969 58C160.169 57.4 160.169 57 160.369 56.4L172.369 49.4H174.769ZM179.369 46.8L176.569 48.6H173.969L179.369 45.4V46.8ZM207.569 30.6L180.569 46.2V44.8L205.969 30C206.569 30.2 206.969 30.4 207.569 30.6ZM208.569 30C207.969 29.8 207.569 29.6 206.969 29.4L208.569 28.6H210.569V28.8L208.569 30ZM179.369 47.8V48.6H178.369L179.369 47.8ZM209.769 30.4L210.569 29.8V30.6C210.369 30.4 209.969 30.6 209.769 30.4ZM170.569 49.4L160.769 55.2C160.969 54.6 160.969 54 161.169 53.4L167.969 49.4H170.569ZM179.369 44.2L172.169 48.6H169.769L179.369 42.8V44.2ZM204.769 29.6L180.569 43.8V42.2L202.969 29.2C203.569 29.4 204.169 29.4 204.769 29.6ZM205.969 29C205.369 28.8 204.769 28.8 204.169 28.6H206.769L205.969 29ZM166.169 49.4L161.569 52.2C161.769 51.6 162.169 50.8 162.369 50.2L163.569 49.4H166.169ZM179.369 41.8L167.969 48.6H165.369L179.369 40.4V41.8ZM201.569 29L180.569 41.2V39.8L199.569 28.8C200.169 28.8 200.969 28.8 201.569 29ZM179.369 39.2L163.569 48.6H163.169C163.569 48 163.769 47.2 164.169 46.6L179.369 37.8V39.2ZM197.969 28.6L180.569 38.8V37.2L195.569 28.6H197.969ZM179.369 36.8L165.169 45L166.969 42.6L179.369 35.4V36.8ZM193.769 28.6L180.569 36.2V34.8L190.769 28.8C191.769 28.6 192.769 28.6 193.769 28.6ZM179.369 34.2L168.569 40.6L172.169 37L179.369 32.8V34.2ZM188.169 29.2L180.569 33.8V32.2L183.369 30.6C184.969 30 186.569 29.6 188.169 29.2Z" fill="black"/>
<path d="M312.603 124.4V134.6H295.603V124.4H294.803V134.6H287.203V135.4H294.803V152.6H282.203V153.4H294.803V165H295.603V153.4H312.603V165H313.803V153.4H324.203V152.6H313.803V135.4H321.003V134.6H313.803V124.4H312.603ZM310.803 152.6H308.203L312.603 149.8V151.4L310.803 152.6ZM306.403 152.6H303.803L312.603 147.4V148.8L306.403 152.6ZM302.003 152.6H299.603L312.603 144.8V146.4L302.003 152.6ZM297.803 152.6H295.603V152.2L312.603 142.4V143.8L297.803 152.6ZM295.603 151.2V149.8L312.603 139.8V141.4L295.603 151.2ZM295.603 148.6V147.2L312.603 137.4V138.8L295.603 148.6ZM295.603 146.2V144.8L311.603 135.4H312.603V136.4L295.603 146.2ZM296.803 135.4L295.603 136.2V135.4H296.803ZM298.603 135.4H301.203L295.603 138.6V137.2L298.603 135.4ZM303.003 135.4H305.603L295.603 141.2V139.8L303.003 135.4ZM307.403 135.4H309.803L295.603 143.6V142.2L307.403 135.4Z" fill="#FF0000"/>
</svg>
