<svg width="100" height="84" viewBox="0 0 100 84" fill="none" xmlns="http://www.w3.org/2000/svg">
<path d="M4.16667 45.838H87.2917L55.4687 76.1535C53.8021 77.7422 53.75 80.3727 55.3125 82.0395C56.901 83.7064 59.5312 83.7585 61.1979 82.1958L97.5521 47.5569C99.1146 45.9942 100 43.8846 100 41.6709C100 39.4571 99.1406 37.3475 97.474 35.7067L61.1979 1.14595C60.3906 0.364621 59.349 0 58.3333 0C57.2396 0 56.1458 0.442753 55.3125 1.30222C53.724 2.96905 53.8021 5.59952 55.4687 7.18823L87.4219 37.5038H4.16667C1.875 37.5038 0 39.379 0 41.6709C0 43.9628 1.875 45.838 4.16667 45.838Z" fill="#CC0303"/>
</svg>
