<svg width="100" height="84" viewBox="0 0 100 84" fill="none" xmlns="http://www.w3.org/2000/svg">
<path d="M95.8333 37.501H12.7104L44.5396 7.18435C46.2062 5.59685 46.2708 2.95935 44.6833 1.29268C43.0979 -0.371901 40.4604 -0.438568 38.7917 1.14893L2.44167 35.7739C0.86875 37.3489 0 39.4406 0 41.6677C0 43.8927 0.868749 45.9864 2.51458 47.6302L38.7937 82.1844C39.6 82.9531 40.6333 83.3343 41.6667 83.3343C42.7667 83.3343 43.8667 82.901 44.6854 82.0406C46.2729 80.3739 46.2083 77.7385 44.5417 76.151L12.5792 45.8343H95.8333C98.1333 45.8343 100 43.9677 100 41.6677C100 39.3677 98.1333 37.501 95.8333 37.501V37.501Z" fill="#CC0303"/>
</svg>
