<svg width="30" height="26" viewBox="0 0 30 26" fill="none" xmlns="http://www.w3.org/2000/svg">
<path d="M29.999 3.70194C29.1636 4.94457 28.1387 6.00385 26.9243 6.87978C26.9363 7.11471 26.9423 7.38023 26.9423 7.67635C26.9423 9.32166 26.7024 10.969 26.2226 12.6182C25.7429 14.2676 25.0101 15.8462 24.0242 17.3543C23.0382 18.8623 21.8639 20.1983 20.501 21.3623C19.1381 22.5262 17.4998 23.4543 15.5862 24.1465C13.6726 24.8387 11.6217 25.1848 9.43357 25.1848C6.0186 25.1848 2.87375 24.2628 -0.000976562 22.419C0.509254 22.4758 0.998608 22.5042 1.46709 22.5042C4.32001 22.5042 6.86814 21.6254 9.11146 19.868C7.78126 19.8436 6.58997 19.4341 5.53758 18.6395C4.4852 17.845 3.76097 16.8297 3.3649 15.5936C3.75639 15.6682 4.14278 15.7055 4.52406 15.7055C5.07289 15.7055 5.61293 15.6339 6.14419 15.4907C4.72462 15.2064 3.54697 14.4994 2.61123 13.3696C1.67553 12.2399 1.20767 10.9359 1.20767 9.45778V9.3816C2.07901 9.86405 3.00843 10.1207 3.99593 10.1515C3.15499 9.59085 2.48825 8.85977 1.99571 7.95825C1.50314 7.05673 1.25685 6.08113 1.25685 5.03144C1.25685 3.92437 1.53426 2.89347 2.08909 1.93876C3.63285 3.83319 5.50343 5.34728 7.70083 6.48103C9.89827 7.61479 12.2557 8.24445 14.7731 8.37C14.6658 7.92253 14.612 7.45557 14.6118 6.96912C14.6118 5.27064 15.2128 3.82038 16.415 2.61835C17.6171 1.41632 19.0674 0.815308 20.7659 0.815308C22.5442 0.815308 24.042 1.46281 25.2594 2.75782C26.6504 2.4823 27.9528 1.98395 29.1667 1.26278C28.699 2.73453 27.7979 3.86988 26.4633 4.66884C27.6899 4.52308 28.8685 4.20078 29.999 3.70194H29.999Z" fill="#0E0E0E"/>
</svg>
